<?xml version="1.0" standalone="no"?>
<!DOCTYPE svg PUBLIC "-//W3C//DTD SVG 20010904//EN"
 "http://www.w3.org/TR/2001/REC-SVG-20010904/DTD/svg10.dtd">
<svg version="1.0" xmlns="http://www.w3.org/2000/svg"
 width="512.000000pt" height="512.000000pt" viewBox="0 0 512.000000 512.000000"
 preserveAspectRatio="xMidYMid meet">
<metadata>
Created by potrace 1.11, written by Peter Selinger 2001-2013
</metadata>
<g transform="translate(0.000000,512.000000) scale(0.100000,-0.100000)"
fill="#000000" stroke="none">
<path d="M955 4839 c-94 -14 -163 -37 -260 -87 -72 -38 -109 -66 -185 -142
-79 -78 -104 -111 -143 -187 -26 -51 -58 -128 -70 -170 l-22 -78 -3 -1579 c-2
-1388 -1 -1591 13 -1669 30 -175 97 -301 230 -434 80 -79 105 -98 196 -142
193 -94 28 -86 1854 -86 1511 0 1614 1 1679 18 154 39 284 116 393 231 115
121 186 262 212 426 15 90 15 3140 0 3230 -26 161 -96 304 -206 421 -110 117
-228 188 -382 232 l-76 22 -1585 1 c-872 1 -1612 -2 -1645 -7z m3142 -49 c186
-17 316 -70 442 -179 64 -55 143 -153 164 -201 6 -14 16 -32 22 -40 25 -32 55
-139 66 -230 12 -102 16 -3018 5 -3141 -27 -289 -221 -539 -496 -640 -55 -20
-114 -32 -192 -39 -77 -8 -600 -10 -1643 -8 -1666 4 -1528 -1 -1675 58 -68 27
-204 117 -247 163 -91 98 -165 232 -200 362 -17 67 -18 146 -18 1650 0 1716
-3 1625 57 1780 80 207 264 376 483 444 l80 25 590 6 c897 8 2433 2 2562 -10z"/>
<path d="M1048 4600 c-244 -41 -438 -223 -503 -468 -11 -44 -14 -137 -15 -436
0 -350 2 -388 20 -461 26 -102 56 -165 114 -242 86 -114 228 -201 373 -229
113 -21 2945 -21 3048 1 180 38 344 164 425 327 67 138 72 180 74 613 1 344
-1 386 -18 440 -21 67 -64 160 -98 208 -43 63 -140 146 -216 185 -148 76 -46
72 -1689 71 -807 -1 -1489 -5 -1515 -9z m3080 -33 c186 -54 332 -192 400 -378
l27 -74 3 -395 c3 -335 1 -405 -13 -467 -48 -217 -223 -398 -440 -455 -74 -19
-3026 -19 -3100 0 -217 57 -392 238 -440 455 -14 62 -16 132 -13 467 l3 395
27 75 c54 147 166 273 303 340 126 62 31 59 1666 59 l1497 1 80 -23z"/>
<path d="M2774 4320 c-61 -24 -85 -121 -44 -173 42 -53 133 -59 183 -13 32 30
43 68 31 115 -16 63 -101 99 -170 71z"/>
<path d="M3258 4177 l-108 -29 0 -69 0 -69 -50 0 -50 0 0 -85 0 -85 49 0 50 0
3 -207 c3 -193 5 -211 25 -250 26 -48 72 -85 127 -103 40 -13 191 -10 214 4 8
5 12 36 12 92 l0 84 -55 0 c-93 0 -105 26 -105 248 l0 132 85 0 85 0 0 85 0
85 -85 0 -84 0 -3 98 -3 99 -107 -30z"/>
<path d="M3822 4012 c-165 -59 -226 -233 -121 -347 36 -39 58 -51 202 -112 44
-19 61 -45 53 -78 -13 -50 -107 -55 -225 -14 -30 10 -56 17 -59 15 -7 -8 -41
-150 -37 -156 2 -4 30 -16 62 -26 43 -14 87 -19 173 -19 99 0 122 3 165 23 95
44 145 115 145 207 0 106 -56 171 -193 224 -118 47 -142 76 -97 121 26 26 79
26 159 1 l61 -19 11 42 c5 22 12 48 14 56 2 8 6 25 9 36 10 33 -57 56 -174 61
-75 3 -106 0 -148 -15z"/>
<path d="M2162 4003 c-24 -8 -62 -33 -84 -54 -23 -21 -43 -39 -44 -39 -2 0 -4
21 -6 48 l-3 47 -104 3 c-92 2 -103 1 -97 -13 3 -9 6 -174 6 -366 l0 -349 114
0 115 0 3 240 3 240 30 30 c57 57 135 56 179 -3 20 -27 21 -43 24 -268 l4
-239 114 0 114 0 0 228 c0 237 -9 321 -41 383 -24 48 -89 103 -138 117 -52 16
-137 14 -189 -5z"/>
<path d="M962 3738 c3 -263 4 -275 27 -326 46 -101 134 -149 256 -140 69 6
130 35 175 83 l25 27 5 -49 5 -48 104 -3 104 -3 -7 62 c-3 34 -6 199 -6 365
l0 304 -115 0 -115 0 0 -230 c0 -249 -4 -271 -54 -304 -32 -21 -95 -21 -125 0
-45 32 -51 67 -51 309 l0 225 -116 0 -115 0 3 -272z"/>
<path d="M2710 3645 l0 -365 115 0 115 0 0 365 0 365 -115 0 -115 0 0 -365z"/>
<path d="M1045 2398 c-189 -36 -370 -217 -405 -407 -6 -30 -10 -232 -10 -460
0 -447 2 -466 61 -583 65 -128 215 -241 358 -268 71 -13 831 -13 902 0 143 27
293 140 358 268 59 117 61 136 61 583 0 228 -4 430 -10 460 -36 194 -217 373
-414 408 -74 14 -830 13 -901 -1z m343 -450 c27 -46 66 -114 87 -151 l38 -69
79 151 79 151 154 0 c84 0 160 -3 168 -6 14 -5 -12 -46 -284 -435 l-19 -27
159 -248 159 -249 -166 -3 c-124 -2 -169 1 -178 10 -7 7 -44 72 -83 143 -39
72 -74 136 -79 144 -6 11 -31 -29 -88 -140 l-80 -154 -168 -3 c-144 -2 -168 0
-163 12 3 8 74 117 158 243 84 125 152 232 152 238 0 5 -68 110 -151 232 -84
122 -152 226 -152 232 0 8 53 11 164 11 l165 0 49 -82z"/>
<path d="M4408 2296 c59 -68 116 -176 137 -261 22 -86 22 -890 0 -983 -40
-168 -162 -321 -322 -401 -120 -60 -148 -62 -642 -59 l-446 3 -75 27 c-91 34
-195 103 -257 172 -36 41 -42 44 -27 18 31 -55 136 -155 204 -195 36 -21 97
-48 135 -60 68 -21 82 -22 545 -22 470 0 476 0 531 23 161 65 285 176 354 317
67 136 72 187 70 657 -2 369 -4 399 -24 473 -31 112 -75 187 -159 274 -60 62
-65 65 -24 17z"/>
<path d="M2320 2266 c0 -2 7 -9 15 -16 13 -11 14 -10 9 4 -5 14 -24 23 -24 12z"/>
<path d="M2387 2163 c61 -126 63 -143 63 -618 0 -472 -3 -502 -60 -618 -80
-159 -235 -283 -406 -323 -55 -12 -139 -14 -513 -12 l-446 3 -75 27 c-117 43
-218 118 -298 223 l-23 30 15 -31 c46 -96 171 -207 293 -262 114 -50 169 -54
631 -50 416 5 417 5 488 30 129 47 198 92 279 181 62 67 124 186 146 277 11
42 14 158 14 480 -1 374 -3 433 -18 490 -23 84 -73 193 -101 219 -19 18 -18
11 11 -46z"/>
<path d="M2761 1542 l-23 -4 4 -226 c5 -215 6 -230 31 -295 62 -159 192 -278
358 -329 63 -19 895 -19 958 0 82 25 154 66 213 121 74 68 112 122 145 208 25
65 26 80 31 295 l4 228 -848 2 c-467 2 -860 1 -873 0z m1397 -230 l3 -92 -513
2 -513 3 -3 79 c-2 44 -1 85 2 93 5 11 95 13 513 11 l508 -3 3 -93z"/>
</g>
</svg>
